<svg width="38" height="38" viewBox="0 0 38 38" fill="none" xmlns="http://www.w3.org/2000/svg">
<g clip-path="url(#clip0_38372_43)">
<circle cx="19" cy="19" r="17" fill="white" stroke="#296DFF" stroke-width="2"/>
<path d="M17.3896 26.436C17.9126 26.436 18.3193 26.2368 18.6016 25.8135L25.9312 14.5908C26.1304 14.2837 26.2134 14.0015 26.2134 13.7358C26.2134 13.0137 25.6738 12.499 24.9434 12.499C24.4453 12.499 24.1299 12.6733 23.8228 13.1548L17.3647 23.3564L14.0776 19.2808C13.7954 18.9404 13.4883 18.7827 13.0566 18.7827C12.3179 18.7827 11.7783 19.314 11.7783 20.0361C11.7783 20.3516 11.8779 20.6338 12.1519 20.9575L16.2109 25.8716C16.5347 26.2617 16.9082 26.436 17.3896 26.436Z" fill="white"/>
</g>
<defs>
<clipPath id="clip0_38372_43">
<rect width="38" height="38" fill="white"/>
</clipPath>
</defs>
</svg>
